{
	"asset":{
		"generator":"Khronos glTF Blender I/O v4.2.57",
		"version":"2.0"
	},
	"scene":0,
	"scenes":[
		{
			"name":"Scene",
			"nodes":[
				0
			]
		}
	],
	"nodes":[
		{
			"mesh":0,
			"name":"ramen",
			"rotation":[
				-0.4124603569507599,
				0.2276068478822708,
				0.1439466029405594,
				0.870259165763855
			],
			"scale":[
				0.8253957033157349,
				1.0003033876419067,
				1.064644455909729
			],
			"translation":[
				-0.07641756534576416,
				1.952803134918213,
				-0.07755470275878906
			]
		}
	],
	"materials":[
		{
			"doubleSided":true,
			"name":"Jaune oeuf.001",
			"pbrMetallicRoughness":{
				"baseColorFactor":[
					0.8004740476608276,
					0.32891321182250977,
					0.006939372513443232,
					1
				],
				"metallicFactor":0,
				"roughnessFactor":0.10833335667848587
			}
		},
		{
			"doubleSided":true,
			"name":"Soupe.001",
			"pbrMetallicRoughness":{
				"baseColorFactor":[
					0.07090774178504944,
					0.005391830578446388,
					0,
					1
				],
				"metallicFactor":0,
				"roughnessFactor":0
			}
		},
		{
			"doubleSided":true,
			"name":"bol",
			"pbrMetallicRoughness":{
				"baseColorFactor":[
					0,
					0,
					0,
					1
				],
				"metallicFactor":0,
				"roughnessFactor":0.42500001192092896
			}
		},
		{
			"doubleSided":true,
			"name":"baguette",
			"pbrMetallicRoughness":{
				"baseColorTexture":{
					"index":0
				},
				"metallicFactor":0,
				"roughnessFactor":0.550000011920929
			}
		},
		{
			"doubleSided":true,
			"name":"Noodles",
			"pbrMetallicRoughness":{
				"baseColorFactor":[
					0.8012049198150635,
					0.48372235894203186,
					0.11440868675708771,
					1
				],
				"metallicFactor":0,
				"roughnessFactor":0.14166666567325592
			}
		},
		{
			"doubleSided":true,
			"name":"Blanc oeuf",
			"pbrMetallicRoughness":{
				"baseColorFactor":[
					0.800000011920929,
					0.800000011920929,
					0.800000011920929,
					1
				],
				"metallicFactor":0,
				"roughnessFactor":0.125
			}
		},
		{
			"doubleSided":true,
			"name":"Jaune oeuf",
			"pbrMetallicRoughness":{
				"baseColorTexture":{
					"index":1
				},
				"metallicFactor":0,
				"roughnessFactor":0.10833335667848587
			}
		},
		{
			"doubleSided":true,
			"name":"Blanc oeuf.001",
			"pbrMetallicRoughness":{
				"baseColorFactor":[
					0.800000011920929,
					0.800000011920929,
					0.800000011920929,
					1
				],
				"metallicFactor":0,
				"roughnessFactor":0.125
			}
		},
		{
			"doubleSided":true,
			"name":"Material.003",
			"pbrMetallicRoughness":{
				"baseColorTexture":{
					"index":2
				},
				"metallicFactor":0
			}
		},
		{
			"doubleSided":true,
			"name":"algue nori",
			"pbrMetallicRoughness":{
				"baseColorTexture":{
					"index":3
				},
				"metallicFactor":0,
				"roughnessFactor":0.5
			}
		},
		{
			"doubleSided":true,
			"name":"Tofu",
			"pbrMetallicRoughness":{
				"baseColorFactor":[
					0.800000011920929,
					0.800000011920929,
					0.800000011920929,
					1
				],
				"metallicFactor":0,
				"roughnessFactor":0.5
			}
		},
		{
			"doubleSided":true,
			"name":"crevette-texture",
			"pbrMetallicRoughness":{
				"baseColorTexture":{
					"index":4
				},
				"metallicFactor":0,
				"roughnessFactor":0.2655797302722931
			}
		},
		{
			"doubleSided":true,
			"name":"crevette-texture.002",
			"pbrMetallicRoughness":{
				"baseColorTexture":{
					"index":5
				},
				"metallicFactor":0,
				"roughnessFactor":0.2655797302722931
			}
		},
		{
			"doubleSided":true,
			"name":"Cebettes",
			"pbrMetallicRoughness":{
				"baseColorFactor":[
					0.005216839723289013,
					0.31458228826522827,
					0,
					1
				],
				"metallicFactor":0,
				"roughnessFactor":0.8826086521148682
			}
		},
		{
			"doubleSided":true,
			"name":"jaune mais",
			"pbrMetallicRoughness":{
				"baseColorFactor":[
					0.8055137991905212,
					0.6233460903167725,
					0,
					1
				],
				"metallicFactor":0,
				"roughnessFactor":0
			}
		}
	],
	"meshes":[
		{
			"name":"Sphere.003",
			"primitives":[
				{
					"attributes":{
						"POSITION":0,
						"NORMAL":1,
						"TEXCOORD_0":2
					},
					"indices":3,
					"material":0
				},
				{
					"attributes":{
						"POSITION":4,
						"NORMAL":5,
						"TEXCOORD_0":6
					},
					"indices":7,
					"material":1
				},
				{
					"attributes":{
						"POSITION":8,
						"NORMAL":9,
						"TEXCOORD_0":10
					},
					"indices":11,
					"material":2
				},
				{
					"attributes":{
						"POSITION":12,
						"NORMAL":13,
						"TEXCOORD_0":14
					},
					"indices":15,
					"material":3
				},
				{
					"attributes":{
						"POSITION":16,
						"NORMAL":17,
						"TEXCOORD_0":18
					},
					"indices":19,
					"material":4
				},
				{
					"attributes":{
						"POSITION":20,
						"NORMAL":21,
						"TEXCOORD_0":22
					},
					"indices":23,
					"material":5
				},
				{
					"attributes":{
						"POSITION":24,
						"NORMAL":25,
						"TEXCOORD_0":26
					},
					"indices":3,
					"material":6
				},
				{
					"attributes":{
						"POSITION":27,
						"NORMAL":28,
						"TEXCOORD_0":29
					},
					"indices":23,
					"material":7
				},
				{
					"attributes":{
						"POSITION":30,
						"NORMAL":31,
						"TEXCOORD_0":32
					},
					"indices":33,
					"material":8
				},
				{
					"attributes":{
						"POSITION":34,
						"NORMAL":35,
						"TEXCOORD_0":36
					},
					"indices":37,
					"material":9
				},
				{
					"attributes":{
						"POSITION":38,
						"NORMAL":39,
						"TEXCOORD_0":40
					},
					"indices":41,
					"material":10
				},
				{
					"attributes":{
						"POSITION":42,
						"NORMAL":43,
						"TEXCOORD_0":44
					},
					"indices":45,
					"material":11
				},
				{
					"attributes":{
						"POSITION":46,
						"NORMAL":47,
						"TEXCOORD_0":48
					},
					"indices":49,
					"material":12
				},
				{
					"attributes":{
						"POSITION":50,
						"NORMAL":51,
						"TEXCOORD_0":52
					},
					"indices":53,
					"material":13
				},
				{
					"attributes":{
						"POSITION":54,
						"NORMAL":55,
						"TEXCOORD_0":56
					},
					"indices":57,
					"material":14
				}
			]
		}
	],
	"textures":[
		{
			"sampler":0,
			"source":0
		},
		{
			"sampler":0,
			"source":1
		},
		{
			"sampler":0,
			"source":2
		},
		{
			"sampler":0,
			"source":3
		},
		{
			"sampler":0,
			"source":4
		},
		{
			"sampler":0,
			"source":4
		}
	],
	"images":[
		{
			"mimeType":"image/jpeg",
			"name":"Wood_024_basecolor",
			"uri":"Wood_024_basecolor.jpg"
		},
		{
			"mimeType":"image/png",
			"name":"jaune-oeuf",
			"uri":"jaune-oeuf.png"
		},
		{
			"mimeType":"image/png",
			"name":"Narutomaki-texture",
			"uri":"Narutomaki-texture.png"
		},
		{
			"mimeType":"image/png",
			"name":"nori",
			"uri":"nori.png"
		},
		{
			"mimeType":"image/png",
			"name":"Crevette-texture",
			"uri":"Crevette-texture.png"
		}
	],
	"accessors":[
		{
			"bufferView":0,
			"componentType":5126,
			"count":168,
			"max":[
				0.4415341317653656,
				1.949202060699463,
				-0.6189789772033691
			],
			"min":[
				-0.33859825134277344,
				1.1504325866699219,
				-1.17717707157135
			],
			"type":"VEC3"
		},
		{
			"bufferView":1,
			"componentType":5126,
			"count":168,
			"type":"VEC3"
		},
		{
			"bufferView":2,
			"componentType":5126,
			"count":168,
			"type":"VEC2"
		},
		{
			"bufferView":3,
			"componentType":5123,
			"count":768,
			"type":"SCALAR"
		},
		{
			"bufferView":4,
			"componentType":5126,
			"count":2538,
			"max":[
				2.551486015319824,
				1.5727280378341675,
				1.236250400543213
			],
			"min":[
				-2.52242374420166,
				-1.724165439605713,
				-1.2494503259658813
			],
			"type":"VEC3"
		},
		{
			"bufferView":5,
			"componentType":5126,
			"count":2538,
			"type":"VEC3"
		},
		{
			"bufferView":6,
			"componentType":5126,
			"count":2538,
			"type":"VEC2"
		},
		{
			"bufferView":7,
			"componentType":5123,
			"count":14784,
			"type":"SCALAR"
		},
		{
			"bufferView":8,
			"componentType":5126,
			"count":1166,
			"max":[
				2.8234410285949707,
				2.1298134326934814,
				1.8001341819763184
			],
			"min":[
				-2.7312002182006836,
				-2.100116729736328,
				-1.9787880182266235
			],
			"type":"VEC3"
		},
		{
			"bufferView":9,
			"componentType":5126,
			"count":1166,
			"type":"VEC3"
		},
		{
			"bufferView":10,
			"componentType":5126,
			"count":1166,
			"type":"VEC2"
		},
		{
			"bufferView":11,
			"componentType":5123,
			"count":6642,
			"type":"SCALAR"
		},
		{
			"bufferView":12,
			"componentType":5126,
			"count":242,
			"max":[
				0.3407154381275177,
				4.170668601989746,
				0.6272687911987305
			],
			"min":[
				-4.2704620361328125,
				-1.7847685813903809,
				-0.7582335472106934
			],
			"type":"VEC3"
		},
		{
			"bufferView":13,
			"componentType":5126,
			"count":242,
			"type":"VEC3"
		},
		{
			"bufferView":14,
			"componentType":5126,
			"count":242,
			"type":"VEC2"
		},
		{
			"bufferView":15,
			"componentType":5123,
			"count":1056,
			"type":"SCALAR"
		},
		{
			"bufferView":16,
			"componentType":5126,
			"count":11861,
			"max":[
				2.318023920059204,
				1.468483328819275,
				1.101107120513916
			],
			"min":[
				-2.2504255771636963,
				-1.6177935600280762,
				-1.1943650245666504
			],
			"type":"VEC3"
		},
		{
			"bufferView":17,
			"componentType":5126,
			"count":11861,
			"type":"VEC3"
		},
		{
			"bufferView":18,
			"componentType":5126,
			"count":11861,
			"type":"VEC2"
		},
		{
			"bufferView":19,
			"componentType":5123,
			"count":62514,
			"type":"SCALAR"
		},
		{
			"bufferView":20,
			"componentType":5126,
			"count":353,
			"max":[
				-0.5203629732131958,
				1.7744988203048706,
				-0.30879998207092285
			],
			"min":[
				-1.8146448135375977,
				0.5889191627502441,
				-1.0021402835845947
			],
			"type":"VEC3"
		},
		{
			"bufferView":21,
			"componentType":5126,
			"count":353,
			"type":"VEC3"
		},
		{
			"bufferView":22,
			"componentType":5126,
			"count":353,
			"type":"VEC2"
		},
		{
			"bufferView":23,
			"componentType":5123,
			"count":1728,
			"type":"SCALAR"
		},
		{
			"bufferView":24,
			"componentType":5126,
			"count":168,
			"max":[
				-0.7965484857559204,
				1.6239519119262695,
				-0.3440507650375366
			],
			"min":[
				-1.7447574138641357,
				0.8326096534729004,
				-0.9852919578552246
			],
			"type":"VEC3"
		},
		{
			"bufferView":25,
			"componentType":5126,
			"count":168,
			"type":"VEC3"
		},
		{
			"bufferView":26,
			"componentType":5126,
			"count":168,
			"type":"VEC2"
		},
		{
			"bufferView":27,
			"componentType":5126,
			"count":353,
			"max":[
				0.7149866819381714,
				2.133619546890259,
				-0.6416826248168945
			],
			"min":[
				-0.4944101572036743,
				0.9295538663864136,
				-1.1452229022979736
			],
			"type":"VEC3"
		},
		{
			"bufferView":28,
			"componentType":5126,
			"count":353,
			"type":"VEC3"
		},
		{
			"bufferView":29,
			"componentType":5126,
			"count":353,
			"type":"VEC2"
		},
		{
			"bufferView":30,
			"componentType":5126,
			"count":663,
			"max":[
				2.601182699203491,
				0.5412764549255371,
				0.8237226009368896
			],
			"min":[
				-2.516429901123047,
				-0.9050726890563965,
				-0.17379367351531982
			],
			"type":"VEC3"
		},
		{
			"bufferView":31,
			"componentType":5126,
			"count":663,
			"type":"VEC3"
		},
		{
			"bufferView":32,
			"componentType":5126,
			"count":663,
			"type":"VEC2"
		},
		{
			"bufferView":33,
			"componentType":5123,
			"count":3456,
			"type":"SCALAR"
		},
		{
			"bufferView":34,
			"componentType":5126,
			"count":70,
			"max":[
				2.67268443107605,
				1.9834622144699097,
				-0.04216432571411133
			],
			"min":[
				1.004447102546692,
				-0.18807411193847656,
				-0.9567017555236816
			],
			"type":"VEC3"
		},
		{
			"bufferView":35,
			"componentType":5126,
			"count":70,
			"type":"VEC3"
		},
		{
			"bufferView":36,
			"componentType":5126,
			"count":70,
			"type":"VEC2"
		},
		{
			"bufferView":37,
			"componentType":5123,
			"count":282,
			"type":"SCALAR"
		},
		{
			"bufferView":38,
			"componentType":5126,
			"count":48,
			"max":[
				2.4685943126678467,
				0.9489212036132812,
				0.04896688461303711
			],
			"min":[
				-2.2298402786254883,
				-0.2584259510040283,
				-0.6296097040176392
			],
			"type":"VEC3"
		},
		{
			"bufferView":39,
			"componentType":5126,
			"count":48,
			"type":"VEC3"
		},
		{
			"bufferView":40,
			"componentType":5126,
			"count":48,
			"type":"VEC2"
		},
		{
			"bufferView":41,
			"componentType":5123,
			"count":72,
			"type":"SCALAR"
		},
		{
			"bufferView":42,
			"componentType":5126,
			"count":448,
			"max":[
				0.7003298997879028,
				-0.5068635940551758,
				1.462517261505127
			],
			"min":[
				-0.3627760410308838,
				-1.5279784202575684,
				0.8855302333831787
			],
			"type":"VEC3"
		},
		{
			"bufferView":43,
			"componentType":5126,
			"count":448,
			"type":"VEC3"
		},
		{
			"bufferView":44,
			"componentType":5126,
			"count":448,
			"type":"VEC2"
		},
		{
			"bufferView":45,
			"componentType":5123,
			"count":2079,
			"type":"SCALAR"
		},
		{
			"bufferView":46,
			"componentType":5126,
			"count":896,
			"max":[
				-0.3739790916442871,
				0.03638172149658203,
				1.2749731540679932
			],
			"min":[
				-2.0977649688720703,
				-1.1839909553527832,
				0.0016067028045654297
			],
			"type":"VEC3"
		},
		{
			"bufferView":47,
			"componentType":5126,
			"count":896,
			"type":"VEC3"
		},
		{
			"bufferView":48,
			"componentType":5126,
			"count":896,
			"type":"VEC2"
		},
		{
			"bufferView":49,
			"componentType":5123,
			"count":4158,
			"type":"SCALAR"
		},
		{
			"bufferView":50,
			"componentType":5126,
			"count":3682,
			"max":[
				2.1244900226593018,
				0.9043920040130615,
				0.7210948467254639
			],
			"min":[
				-1.9553542137145996,
				-0.7303862571716309,
				-0.5420479774475098
			],
			"type":"VEC3"
		},
		{
			"bufferView":51,
			"componentType":5126,
			"count":3682,
			"type":"VEC3"
		},
		{
			"bufferView":52,
			"componentType":5126,
			"count":3682,
			"type":"VEC2"
		},
		{
			"bufferView":53,
			"componentType":5123,
			"count":22092,
			"type":"SCALAR"
		},
		{
			"bufferView":54,
			"componentType":5126,
			"count":3552,
			"max":[
				2.020500421524048,
				0.9255534410476685,
				0.6961076259613037
			],
			"min":[
				-1.8026947975158691,
				-0.6141676902770996,
				-0.49517154693603516
			],
			"type":"VEC3"
		},
		{
			"bufferView":55,
			"componentType":5126,
			"count":3552,
			"type":"VEC3"
		},
		{
			"bufferView":56,
			"componentType":5126,
			"count":3552,
			"type":"VEC2"
		},
		{
			"bufferView":57,
			"componentType":5123,
			"count":13350,
			"type":"SCALAR"
		}
	],
	"bufferViews":[
		{
			"buffer":0,
			"byteLength":2016,
			"byteOffset":0,
			"target":34962
		},
		{
			"buffer":0,
			"byteLength":2016,
			"byteOffset":2016,
			"target":34962
		},
		{
			"buffer":0,
			"byteLength":1344,
			"byteOffset":4032,
			"target":34962
		},
		{
			"buffer":0,
			"byteLength":1536,
			"byteOffset":5376,
			"target":34963
		},
		{
			"buffer":0,
			"byteLength":30456,
			"byteOffset":6912,
			"target":34962
		},
		{
			"buffer":0,
			"byteLength":30456,
			"byteOffset":37368,
			"target":34962
		},
		{
			"buffer":0,
			"byteLength":20304,
			"byteOffset":67824,
			"target":34962
		},
		{
			"buffer":0,
			"byteLength":29568,
			"byteOffset":88128,
			"target":34963
		},
		{
			"buffer":0,
			"byteLength":13992,
			"byteOffset":117696,
			"target":34962
		},
		{
			"buffer":0,
			"byteLength":13992,
			"byteOffset":131688,
			"target":34962
		},
		{
			"buffer":0,
			"byteLength":9328,
			"byteOffset":145680,
			"target":34962
		},
		{
			"buffer":0,
			"byteLength":13284,
			"byteOffset":155008,
			"target":34963
		},
		{
			"buffer":0,
			"byteLength":2904,
			"byteOffset":168292,
			"target":34962
		},
		{
			"buffer":0,
			"byteLength":2904,
			"byteOffset":171196,
			"target":34962
		},
		{
			"buffer":0,
			"byteLength":1936,
			"byteOffset":174100,
			"target":34962
		},
		{
			"buffer":0,
			"byteLength":2112,
			"byteOffset":176036,
			"target":34963
		},
		{
			"buffer":0,
			"byteLength":142332,
			"byteOffset":178148,
			"target":34962
		},
		{
			"buffer":0,
			"byteLength":142332,
			"byteOffset":320480,
			"target":34962
		},
		{
			"buffer":0,
			"byteLength":94888,
			"byteOffset":462812,
			"target":34962
		},
		{
			"buffer":0,
			"byteLength":125028,
			"byteOffset":557700,
			"target":34963
		},
		{
			"buffer":0,
			"byteLength":4236,
			"byteOffset":682728,
			"target":34962
		},
		{
			"buffer":0,
			"byteLength":4236,
			"byteOffset":686964,
			"target":34962
		},
		{
			"buffer":0,
			"byteLength":2824,
			"byteOffset":691200,
			"target":34962
		},
		{
			"buffer":0,
			"byteLength":3456,
			"byteOffset":694024,
			"target":34963
		},
		{
			"buffer":0,
			"byteLength":2016,
			"byteOffset":697480,
			"target":34962
		},
		{
			"buffer":0,
			"byteLength":2016,
			"byteOffset":699496,
			"target":34962
		},
		{
			"buffer":0,
			"byteLength":1344,
			"byteOffset":701512,
			"target":34962
		},
		{
			"buffer":0,
			"byteLength":4236,
			"byteOffset":702856,
			"target":34962
		},
		{
			"buffer":0,
			"byteLength":4236,
			"byteOffset":707092,
			"target":34962
		},
		{
			"buffer":0,
			"byteLength":2824,
			"byteOffset":711328,
			"target":34962
		},
		{
			"buffer":0,
			"byteLength":7956,
			"byteOffset":714152,
			"target":34962
		},
		{
			"buffer":0,
			"byteLength":7956,
			"byteOffset":722108,
			"target":34962
		},
		{
			"buffer":0,
			"byteLength":5304,
			"byteOffset":730064,
			"target":34962
		},
		{
			"buffer":0,
			"byteLength":6912,
			"byteOffset":735368,
			"target":34963
		},
		{
			"buffer":0,
			"byteLength":840,
			"byteOffset":742280,
			"target":34962
		},
		{
			"buffer":0,
			"byteLength":840,
			"byteOffset":743120,
			"target":34962
		},
		{
			"buffer":0,
			"byteLength":560,
			"byteOffset":743960,
			"target":34962
		},
		{
			"buffer":0,
			"byteLength":564,
			"byteOffset":744520,
			"target":34963
		},
		{
			"buffer":0,
			"byteLength":576,
			"byteOffset":745084,
			"target":34962
		},
		{
			"buffer":0,
			"byteLength":576,
			"byteOffset":745660,
			"target":34962
		},
		{
			"buffer":0,
			"byteLength":384,
			"byteOffset":746236,
			"target":34962
		},
		{
			"buffer":0,
			"byteLength":144,
			"byteOffset":746620,
			"target":34963
		},
		{
			"buffer":0,
			"byteLength":5376,
			"byteOffset":746764,
			"target":34962
		},
		{
			"buffer":0,
			"byteLength":5376,
			"byteOffset":752140,
			"target":34962
		},
		{
			"buffer":0,
			"byteLength":3584,
			"byteOffset":757516,
			"target":34962
		},
		{
			"buffer":0,
			"byteLength":4158,
			"byteOffset":761100,
			"target":34963
		},
		{
			"buffer":0,
			"byteLength":10752,
			"byteOffset":765260,
			"target":34962
		},
		{
			"buffer":0,
			"byteLength":10752,
			"byteOffset":776012,
			"target":34962
		},
		{
			"buffer":0,
			"byteLength":7168,
			"byteOffset":786764,
			"target":34962
		},
		{
			"buffer":0,
			"byteLength":8316,
			"byteOffset":793932,
			"target":34963
		},
		{
			"buffer":0,
			"byteLength":44184,
			"byteOffset":802248,
			"target":34962
		},
		{
			"buffer":0,
			"byteLength":44184,
			"byteOffset":846432,
			"target":34962
		},
		{
			"buffer":0,
			"byteLength":29456,
			"byteOffset":890616,
			"target":34962
		},
		{
			"buffer":0,
			"byteLength":44184,
			"byteOffset":920072,
			"target":34963
		},
		{
			"buffer":0,
			"byteLength":42624,
			"byteOffset":964256,
			"target":34962
		},
		{
			"buffer":0,
			"byteLength":42624,
			"byteOffset":1006880,
			"target":34962
		},
		{
			"buffer":0,
			"byteLength":28416,
			"byteOffset":1049504,
			"target":34962
		},
		{
			"buffer":0,
			"byteLength":26700,
			"byteOffset":1077920,
			"target":34963
		}
	],
	"samplers":[
		{
			"magFilter":9729,
			"minFilter":9987
		}
	],
	"buffers":[
		{
			"byteLength":1104620,
			"uri":"ramen-2-opti.bin"
		}
	]
}
