{
	"asset":{
		"generator":"Khronos glTF Blender I/O v4.2.57",
		"version":"2.0"
	},
	"scene":0,
	"scenes":[
		{
			"name":"Scene",
			"nodes":[
				0,
				1,
				2,
				3,
				4
			]
		}
	],
	"nodes":[
		{
			"mesh":0,
			"name":"Main",
			"scale":[
				1,
				1.2663718461990356,
				0.7084488868713379
			],
			"translation":[
				0.11977848410606384,
				1.6271685361862183,
				-0.030135512351989746
			]
		},
		{
			"mesh":1,
			"name":"bouton1",
			"rotation":[
				0.1674221009016037,
				-0.11430398374795914,
				0.003776316298171878,
				0.9792294502258301
			],
			"scale":[
				1,
				1,
				0.6113686561584473
			],
			"translation":[
				-0.5767467617988586,
				0.864077091217041,
				0.7320337295532227
			]
		},
		{
			"mesh":2,
			"name":"bouton2",
			"rotation":[
				0.1631494015455246,
				0.1315719485282898,
				-0.03777153417468071,
				0.9770590662956238
			],
			"scale":[
				1,
				1,
				0.6113686561584473
			],
			"translation":[
				0.5258463621139526,
				0.864077091217041,
				0.7287966012954712
			]
		},
		{
			"mesh":3,
			"name":"bouton3",
			"rotation":[
				0.19112713634967804,
				0.006599990651011467,
				0.017799679189920425,
				0.9813817143440247
			],
			"scale":[
				1,
				1,
				0.6113686561584473
			],
			"translation":[
				-0.023462293669581413,
				0.6973167061805725,
				0.7364866733551025
			]
		},
		{
			"mesh":4,
			"name":"Boucle",
			"rotation":[
				0.7071068286895752,
				0,
				0,
				0.7071068286895752
			],
			"scale":[
				0.8340036869049072,
				1.3973103761672974,
				0.8340036869049072
			],
			"translation":[
				0,
				3.4222805500030518,
				-0.030481956899166107
			]
		}
	],
	"materials":[
		{
			"doubleSided":true,
			"name":"Tamagochi",
			"pbrMetallicRoughness":{
				"baseColorTexture":{
					"index":0
				},
				"metallicFactor":0,
				"roughnessFactor":0.14419475197792053
			}
		},
		{
			"doubleSided":true,
			"name":"screen-1",
			"pbrMetallicRoughness":{
				"baseColorTexture":{
					"index":1
				},
				"metallicFactor":0,
				"roughnessFactor":0.16545453667640686
			}
		},
		{
			"doubleSided":true,
			"name":"buttons",
			"pbrMetallicRoughness":{
				"baseColorFactor":[
					0.800000011920929,
					0.800000011920929,
					0.800000011920929,
					1
				],
				"metallicFactor":0
			}
		},
		{
			"doubleSided":true,
			"name":"Mocha plastic",
			"pbrMetallicRoughness":{
				"baseColorFactor":[
					0.37626007199287415,
					0.18782097101211548,
					0.13013656437397003,
					1
				],
				"metallicFactor":0,
				"roughnessFactor":0.1254681646823883
			}
		}
	],
	"meshes":[
		{
			"name":"Cube",
			"primitives":[
				{
					"attributes":{
						"POSITION":0,
						"NORMAL":1,
						"TEXCOORD_0":2,
						"TEXCOORD_1":3
					},
					"indices":4,
					"material":0
				},
				{
					"attributes":{
						"POSITION":5,
						"NORMAL":6,
						"TEXCOORD_0":7,
						"TEXCOORD_1":8
					},
					"indices":9,
					"material":1
				}
			]
		},
		{
			"name":"Cube.003",
			"primitives":[
				{
					"attributes":{
						"POSITION":10,
						"NORMAL":11,
						"TEXCOORD_0":12
					},
					"indices":13,
					"material":2
				}
			]
		},
		{
			"name":"Cube.004",
			"primitives":[
				{
					"attributes":{
						"POSITION":14,
						"NORMAL":15,
						"TEXCOORD_0":16
					},
					"indices":13,
					"material":2
				}
			]
		},
		{
			"name":"Cube.005",
			"primitives":[
				{
					"attributes":{
						"POSITION":17,
						"NORMAL":18,
						"TEXCOORD_0":19
					},
					"indices":13,
					"material":2
				}
			]
		},
		{
			"name":"Torus.001",
			"primitives":[
				{
					"attributes":{
						"POSITION":20,
						"NORMAL":21,
						"TEXCOORD_0":22
					},
					"indices":23,
					"material":3
				}
			]
		}
	],
	"textures":[
		{
			"sampler":0,
			"source":0
		},
		{
			"sampler":0,
			"source":1
		}
	],
	"images":[
		{
			"mimeType":"image/png",
			"name":"main-tamagotchi-coffee-final",
			"uri":"main-tamagotchi-coffee-final.png"
		},
		{
			"mimeType":"image/png",
			"name":"test-cat.jpg0001",
			"uri":"test-cat_jpg0001.png"
		}
	],
	"accessors":[
		{
			"bufferView":0,
			"componentType":5126,
			"count":426,
			"max":[
				1.2412605285644531,
				1.3821412324905396,
				1.3036484718322754
			],
			"min":[
				-1.5019559860229492,
				-1.2559690475463867,
				-1.2640635967254639
			],
			"type":"VEC3"
		},
		{
			"bufferView":1,
			"componentType":5126,
			"count":426,
			"type":"VEC3"
		},
		{
			"bufferView":2,
			"componentType":5126,
			"count":426,
			"type":"VEC2"
		},
		{
			"bufferView":3,
			"componentType":5126,
			"count":426,
			"type":"VEC2"
		},
		{
			"bufferView":4,
			"componentType":5123,
			"count":2160,
			"type":"SCALAR"
		},
		{
			"bufferView":5,
			"componentType":5126,
			"count":35,
			"max":[
				0.7713721990585327,
				0.9018698930740356,
				0.9596788883209229
			],
			"min":[
				-1.0189086198806763,
				-0.35169142484664917,
				0.3795892000198364
			],
			"type":"VEC3"
		},
		{
			"bufferView":6,
			"componentType":5126,
			"count":35,
			"type":"VEC3"
		},
		{
			"bufferView":7,
			"componentType":5126,
			"count":35,
			"type":"VEC2"
		},
		{
			"bufferView":8,
			"componentType":5126,
			"count":35,
			"type":"VEC2"
		},
		{
			"bufferView":9,
			"componentType":5123,
			"count":144,
			"type":"SCALAR"
		},
		{
			"bufferView":10,
			"componentType":5126,
			"count":125,
			"max":[
				0.15166941285133362,
				0.1516694724559784,
				0.15166951715946198
			],
			"min":[
				-0.15166951715946198,
				-0.1516694724559784,
				-0.15166941285133362
			],
			"type":"VEC3"
		},
		{
			"bufferView":11,
			"componentType":5126,
			"count":125,
			"type":"VEC3"
		},
		{
			"bufferView":12,
			"componentType":5126,
			"count":125,
			"type":"VEC2"
		},
		{
			"bufferView":13,
			"componentType":5123,
			"count":576,
			"type":"SCALAR"
		},
		{
			"bufferView":14,
			"componentType":5126,
			"count":125,
			"max":[
				0.15166941285133362,
				0.1516694724559784,
				0.15166951715946198
			],
			"min":[
				-0.15166951715946198,
				-0.1516694724559784,
				-0.15166941285133362
			],
			"type":"VEC3"
		},
		{
			"bufferView":15,
			"componentType":5126,
			"count":125,
			"type":"VEC3"
		},
		{
			"bufferView":16,
			"componentType":5126,
			"count":125,
			"type":"VEC2"
		},
		{
			"bufferView":17,
			"componentType":5126,
			"count":125,
			"max":[
				0.15166941285133362,
				0.1516694724559784,
				0.15166951715946198
			],
			"min":[
				-0.15166951715946198,
				-0.1516694724559784,
				-0.15166941285133362
			],
			"type":"VEC3"
		},
		{
			"bufferView":18,
			"componentType":5126,
			"count":125,
			"type":"VEC3"
		},
		{
			"bufferView":19,
			"componentType":5126,
			"count":125,
			"type":"VEC2"
		},
		{
			"bufferView":20,
			"componentType":5126,
			"count":637,
			"max":[
				0.27000001072883606,
				0.06999997794628143,
				0.27000001072883606
			],
			"min":[
				-0.27000001072883606,
				-0.06999997794628143,
				-0.27000001072883606
			],
			"type":"VEC3"
		},
		{
			"bufferView":21,
			"componentType":5126,
			"count":637,
			"type":"VEC3"
		},
		{
			"bufferView":22,
			"componentType":5126,
			"count":637,
			"type":"VEC2"
		},
		{
			"bufferView":23,
			"componentType":5123,
			"count":3456,
			"type":"SCALAR"
		}
	],
	"bufferViews":[
		{
			"buffer":0,
			"byteLength":5112,
			"byteOffset":0,
			"target":34962
		},
		{
			"buffer":0,
			"byteLength":5112,
			"byteOffset":5112,
			"target":34962
		},
		{
			"buffer":0,
			"byteLength":3408,
			"byteOffset":10224,
			"target":34962
		},
		{
			"buffer":0,
			"byteLength":3408,
			"byteOffset":13632,
			"target":34962
		},
		{
			"buffer":0,
			"byteLength":4320,
			"byteOffset":17040,
			"target":34963
		},
		{
			"buffer":0,
			"byteLength":420,
			"byteOffset":21360,
			"target":34962
		},
		{
			"buffer":0,
			"byteLength":420,
			"byteOffset":21780,
			"target":34962
		},
		{
			"buffer":0,
			"byteLength":280,
			"byteOffset":22200,
			"target":34962
		},
		{
			"buffer":0,
			"byteLength":280,
			"byteOffset":22480,
			"target":34962
		},
		{
			"buffer":0,
			"byteLength":288,
			"byteOffset":22760,
			"target":34963
		},
		{
			"buffer":0,
			"byteLength":1500,
			"byteOffset":23048,
			"target":34962
		},
		{
			"buffer":0,
			"byteLength":1500,
			"byteOffset":24548,
			"target":34962
		},
		{
			"buffer":0,
			"byteLength":1000,
			"byteOffset":26048,
			"target":34962
		},
		{
			"buffer":0,
			"byteLength":1152,
			"byteOffset":27048,
			"target":34963
		},
		{
			"buffer":0,
			"byteLength":1500,
			"byteOffset":28200,
			"target":34962
		},
		{
			"buffer":0,
			"byteLength":1500,
			"byteOffset":29700,
			"target":34962
		},
		{
			"buffer":0,
			"byteLength":1000,
			"byteOffset":31200,
			"target":34962
		},
		{
			"buffer":0,
			"byteLength":1500,
			"byteOffset":32200,
			"target":34962
		},
		{
			"buffer":0,
			"byteLength":1500,
			"byteOffset":33700,
			"target":34962
		},
		{
			"buffer":0,
			"byteLength":1000,
			"byteOffset":35200,
			"target":34962
		},
		{
			"buffer":0,
			"byteLength":7644,
			"byteOffset":36200,
			"target":34962
		},
		{
			"buffer":0,
			"byteLength":7644,
			"byteOffset":43844,
			"target":34962
		},
		{
			"buffer":0,
			"byteLength":5096,
			"byteOffset":51488,
			"target":34962
		},
		{
			"buffer":0,
			"byteLength":6912,
			"byteOffset":56584,
			"target":34963
		}
	],
	"samplers":[
		{
			"magFilter":9729,
			"minFilter":9987
		}
	],
	"buffers":[
		{
			"byteLength":63496,
			"uri":"tamagotchi.bin"
		}
	]
}
